<svg width="183" height="137" viewBox="0 0 183 137" fill="none" xmlns="http://www.w3.org/2000/svg">
<path d="M183 60.8261L116.789 137L151.042 75.0155H116.955L182.167 0L148.618 60.8261H183Z" fill="#FF8106"/>
<path d="M68.699 91.442H46.7177L33.4221 70.8464H29.055V91.442H10.713V23.9496H39.0024C43.321 23.9496 47.1544 24.5526 50.454 25.7587C53.7537 26.9647 56.471 28.6346 58.509 30.7684C60.547 32.9486 62.0998 35.4535 63.1673 38.3294C64.1863 41.2054 64.72 44.4061 64.72 47.9314C64.72 50.3899 64.4289 52.6628 63.8951 54.7502C63.3614 56.8376 62.585 58.6931 61.566 60.363C60.4985 62.0329 59.2854 63.5173 57.8297 64.7697C56.3739 66.0686 54.6756 67.1354 52.7832 67.9704L52.7346 68.1096L68.699 91.442ZM29.055 39.8138V55.2141H34.7808C37.8863 55.2141 40.3611 54.5647 42.2535 53.2195C44.1459 51.9207 45.1164 50.0188 45.1164 47.5139C45.1164 45.3338 44.1944 43.5247 42.3991 42.0403C40.6037 40.556 38.0804 39.8138 34.7808 39.8138H29.055Z" fill="#FDDC2B"/>
<path d="M74.3535 91.442V26.796H119.297V42.2133H91.8755V51.9435H113.348V66.9609H91.8755V76.0691H121.296V91.442H74.3535Z" fill="#FDDC2B"/>
<path d="M0 136.037V108.69H11.1282C12.5241 108.69 13.8021 108.86 14.9425 109.16C16.0828 109.48 17.0659 109.931 17.8916 110.495C18.6977 111.077 19.3859 111.773 19.9364 112.581C20.4869 113.389 20.8801 114.273 21.1357 115.25C21.3913 116.227 21.5289 117.28 21.5289 118.407C21.5289 120.437 21.0767 122.148 20.1723 123.557C19.2679 124.967 18.0096 126.001 16.3974 126.677C14.7852 127.354 12.8584 127.692 10.6563 127.692H7.43191V136.037H0ZM7.43191 121.358H9.41768C10.676 121.358 11.6787 121.095 12.4258 120.55C13.173 120.024 13.5662 119.253 13.5662 118.238C13.5662 117.355 13.1926 116.622 12.4848 116.02C11.777 115.419 10.7546 115.118 9.43734 115.118H7.43191V121.358Z" fill="#FFDC2E"/>
<path d="M41.9191 136.037L40.5049 131.685H31.4578L30.0436 136.037H22.1396L32.3684 109.092H39.575L49.8038 136.037H41.9191ZM33.4145 125.629H38.5289L36.0104 117.888H35.9329L33.4145 125.629Z" fill="#FFDC2E"/>
<path d="M51.8185 136.037V109.092H61.9698C64.1589 109.092 66.1737 109.425 67.9947 110.092C69.8158 110.758 71.3656 111.684 72.6248 112.87C73.884 114.055 74.8527 115.481 75.5501 117.148C76.2475 118.814 76.5962 120.648 76.5962 122.611C76.5962 124.592 76.2669 126.407 75.6082 128.055C74.9495 129.704 74.0003 131.111 72.7798 132.296C71.5399 133.482 70.0095 134.408 68.1885 135.056C66.3674 135.722 64.3333 136.037 62.0861 136.037H51.8185ZM59.1414 129.63H61.6017C62.9966 129.63 64.2364 129.315 65.3213 128.685C66.4062 128.055 67.2392 127.222 67.8204 126.148C68.4016 125.092 68.6921 123.907 68.6921 122.611C68.6921 121.629 68.5178 120.703 68.1691 119.814C67.8204 118.944 67.3748 118.185 66.7936 117.555C66.2124 116.925 65.515 116.444 64.7014 116.073C63.8877 115.703 63.0159 115.518 62.1248 115.518H59.1414V129.63Z" fill="#FFDC2E"/>
<path d="M103.021 136.037H94.2447L88.9366 127.815H87.1931V136.037H79.8702V109.092H91.1645C92.8886 109.092 94.4191 109.332 95.7364 109.814C97.0538 110.295 98.1386 110.962 98.9523 111.814C99.7659 112.684 100.386 113.684 100.812 114.833C101.219 115.981 101.432 117.259 101.432 118.666C101.432 119.648 101.316 120.555 101.103 121.388C100.89 122.222 100.58 122.963 100.173 123.629C99.7466 124.296 99.2622 124.889 98.6811 125.389C98.0999 125.907 97.4218 126.333 96.6663 126.666L96.6469 126.722L103.021 136.037ZM87.1931 115.425V121.574H89.479C90.7189 121.574 91.7069 121.314 92.4624 120.777C93.218 120.259 93.6054 119.499 93.6054 118.499C93.6054 117.629 93.2373 116.907 92.5205 116.314C91.8038 115.722 90.7964 115.425 89.479 115.425H87.1931Z" fill="#FFDC2E"/>
<path d="M114.199 107.017L110.13 105.462C110.595 103.98 111.312 102.758 112.242 101.813C113.172 100.888 114.257 100.406 115.516 100.406C116.058 100.406 116.601 100.48 117.104 100.591C117.608 100.721 117.957 100.832 118.151 100.925C118.344 101.017 118.654 101.165 119.08 101.388C119.778 101.795 120.378 101.999 120.902 101.999C121.754 101.999 122.49 101.443 123.071 100.332L127.062 101.591C126.597 103.184 125.919 104.462 125.009 105.462C124.098 106.462 123.033 106.943 121.793 106.943C120.63 106.943 119.487 106.629 118.325 105.999C118.286 105.999 118.209 105.962 118.092 105.888C117.976 105.832 117.899 105.795 117.86 105.777L117.647 105.666C117.531 105.628 117.453 105.591 117.414 105.573C117.356 105.554 117.279 105.517 117.201 105.48C117.104 105.443 117.027 105.425 116.969 105.406C116.911 105.388 116.833 105.369 116.756 105.351C116.678 105.332 116.601 105.314 116.523 105.314C116.446 105.314 116.368 105.295 116.291 105.295C115.438 105.295 114.741 105.869 114.199 107.017ZM118.228 136.426C116.078 136.426 114.102 136.093 112.281 135.408C110.46 134.741 108.91 133.796 107.631 132.574C106.353 131.37 105.345 129.907 104.628 128.185C103.912 126.481 103.563 124.611 103.563 122.574C103.563 120.555 103.912 118.685 104.628 116.962C105.345 115.24 106.353 113.777 107.631 112.555C108.91 111.351 110.46 110.406 112.281 109.721C114.102 109.055 116.078 108.703 118.228 108.703C120.34 108.703 122.296 109.055 124.117 109.721C125.919 110.388 127.469 111.332 128.747 112.536C130.026 113.74 131.014 115.203 131.75 116.925C132.467 118.666 132.835 120.537 132.835 122.574C132.835 124.611 132.467 126.5 131.75 128.222C131.014 129.944 130.026 131.407 128.747 132.611C127.469 133.815 125.919 134.759 124.117 135.426C122.296 136.093 120.34 136.426 118.228 136.426ZM118.209 129.704C119.507 129.704 120.669 129.389 121.715 128.759C122.761 128.129 123.556 127.259 124.117 126.185C124.679 125.111 124.97 123.907 124.97 122.574C124.97 121.259 124.679 120.055 124.117 118.981C123.556 117.907 122.761 117.036 121.715 116.407C120.669 115.777 119.507 115.444 118.209 115.444C116.891 115.444 115.729 115.759 114.702 116.388C113.656 117.018 112.862 117.888 112.281 118.962C111.7 120.055 111.428 121.259 111.428 122.574C111.428 123.907 111.7 125.111 112.281 126.185C112.862 127.259 113.656 128.129 114.702 128.759C115.748 129.389 116.911 129.704 118.209 129.704Z" fill="#FFDC2E"/>
<path d="M136.09 136.037V109.092H154.823V115.518H143.393V119.574H152.343V125.833H143.393V129.63H155.656V136.037H136.09Z" fill="#FFDC2E"/>
<path d="M167.57 136.426C165.672 136.426 163.831 136.074 162.049 135.352C160.247 134.63 158.62 133.556 157.148 132.111L161.41 127.092C162.456 128.111 163.541 128.87 164.684 129.352C165.827 129.833 166.873 130.074 167.842 130.074C168.655 130.074 169.256 129.907 169.663 129.574C170.05 129.241 170.263 128.815 170.263 128.333C170.263 127.778 170.031 127.333 169.566 126.981C169.101 126.629 168.152 126.222 166.699 125.74C166.001 125.518 165.401 125.315 164.858 125.111C164.316 124.907 163.754 124.648 163.134 124.352C162.514 124.055 161.991 123.74 161.526 123.407C161.061 123.092 160.596 122.703 160.151 122.24C159.705 121.796 159.337 121.314 159.066 120.796C158.795 120.277 158.562 119.685 158.388 119.018C158.213 118.351 158.136 117.648 158.136 116.87C158.136 115.37 158.523 113.999 159.337 112.777C160.151 111.555 161.274 110.573 162.708 109.851C164.141 109.147 165.749 108.758 167.532 108.721C169.391 108.684 171.174 108.999 172.878 109.629C174.583 110.258 176.114 111.166 177.509 112.314L173.324 117.462C172.123 116.592 171.116 115.962 170.283 115.592C169.449 115.221 168.675 115.036 167.958 115.036C167.299 115.036 166.815 115.184 166.485 115.462C166.137 115.759 165.982 116.147 165.982 116.629C165.982 117.129 166.214 117.573 166.699 117.981C167.163 118.388 168.093 118.833 169.449 119.314C171.813 120.203 173.402 120.833 174.176 121.222C175.881 122.111 177.024 123.185 177.605 124.481C177.993 125.333 178.187 126.352 178.187 127.5C178.187 128.444 178.07 129.315 177.838 130.111C177.605 130.926 177.295 131.63 176.908 132.222C176.521 132.815 176.036 133.352 175.494 133.833C174.932 134.315 174.351 134.722 173.731 135.037C173.111 135.371 172.433 135.63 171.735 135.834C171.019 136.056 170.321 136.204 169.643 136.297C168.946 136.389 168.268 136.426 167.57 136.426Z" fill="#FFDC2E"/>
</svg>
